<svg id="visual" viewBox="0 0 900 100" width="900" height="100" xmlns="http://www.w3.org/2000/svg" xmlns:xlink="http://www.w3.org/1999/xlink" version="1.1"><rect x="0" y="0" width="900" height="100" fill="#2ec2ff"></rect><path d="M0 55L10.7 54.3C21.3 53.7 42.7 52.3 64.2 44C85.7 35.7 107.3 20.3 128.8 21.5C150.3 22.7 171.7 40.3 193 41.2C214.3 42 235.7 26 257 17.8C278.3 9.7 299.7 9.3 321.2 17.2C342.7 25 364.3 41 385.8 42.3C407.3 43.7 428.7 30.3 450 21.5C471.3 12.7 492.7 8.3 514.2 11C535.7 13.7 557.3 23.3 578.8 23C600.3 22.7 621.7 12.3 643 11.5C664.3 10.7 685.7 19.3 707 20.2C728.3 21 749.7 14 771.2 19.8C792.7 25.7 814.3 44.3 835.8 46.7C857.3 49 878.7 35 889.3 28L900 21L900 101L889.3 101C878.7 101 857.3 101 835.8 101C814.3 101 792.7 101 771.2 101C749.7 101 728.3 101 707 101C685.7 101 664.3 101 643 101C621.7 101 600.3 101 578.8 101C557.3 101 535.7 101 514.2 101C492.7 101 471.3 101 450 101C428.7 101 407.3 101 385.8 101C364.3 101 342.7 101 321.2 101C299.7 101 278.3 101 257 101C235.7 101 214.3 101 193 101C171.7 101 150.3 101 128.8 101C107.3 101 85.7 101 64.2 101C42.7 101 21.3 101 10.7 101L0 101Z" fill="#2eafff"></path><path d="M0 43L10.7 48.2C21.3 53.3 42.7 63.7 64.2 64.8C85.7 66 107.3 58 128.8 51C150.3 44 171.7 38 193 41.5C214.3 45 235.7 58 257 60C278.3 62 299.7 53 321.2 53.7C342.7 54.3 364.3 64.7 385.8 62.2C407.3 59.7 428.7 44.3 450 36.7C471.3 29 492.7 29 514.2 32.3C535.7 35.7 557.3 42.3 578.8 44.7C600.3 47 621.7 45 643 40.5C664.3 36 685.7 29 707 33.2C728.3 37.3 749.7 52.7 771.2 54.7C792.7 56.7 814.3 45.3 835.8 40.3C857.3 35.3 878.7 36.7 889.3 37.3L900 38L900 101L889.3 101C878.7 101 857.3 101 835.8 101C814.3 101 792.7 101 771.2 101C749.7 101 728.3 101 707 101C685.7 101 664.3 101 643 101C621.7 101 600.3 101 578.8 101C557.3 101 535.7 101 514.2 101C492.7 101 471.3 101 450 101C428.7 101 407.3 101 385.8 101C364.3 101 342.7 101 321.2 101C299.7 101 278.3 101 257 101C235.7 101 214.3 101 193 101C171.7 101 150.3 101 128.8 101C107.3 101 85.7 101 64.2 101C42.7 101 21.3 101 10.7 101L0 101Z" fill="#24a8fe"></path><path d="M0 63L10.7 64C21.3 65 42.7 67 64.2 70.7C85.7 74.3 107.3 79.7 128.8 81C150.3 82.3 171.7 79.7 193 76.5C214.3 73.3 235.7 69.7 257 64C278.3 58.3 299.7 50.7 321.2 51.3C342.7 52 364.3 61 385.8 63.8C407.3 66.7 428.7 63.3 450 61C471.3 58.7 492.7 57.3 514.2 61.3C535.7 65.3 557.3 74.7 578.8 72.3C600.3 70 621.7 56 643 52.7C664.3 49.3 685.7 56.7 707 56.3C728.3 56 749.7 48 771.2 48.8C792.7 49.7 814.3 59.3 835.8 66.7C857.3 74 878.7 79 889.3 81.5L900 84L900 101L889.3 101C878.7 101 857.3 101 835.8 101C814.3 101 792.7 101 771.2 101C749.7 101 728.3 101 707 101C685.7 101 664.3 101 643 101C621.7 101 600.3 101 578.8 101C557.3 101 535.7 101 514.2 101C492.7 101 471.3 101 450 101C428.7 101 407.3 101 385.8 101C364.3 101 342.7 101 321.2 101C299.7 101 278.3 101 257 101C235.7 101 214.3 101 193 101C171.7 101 150.3 101 128.8 101C107.3 101 85.7 101 64.2 101C42.7 101 21.3 101 10.7 101L0 101Z" fill="#1ba1fc"></path><path d="M0 99L10.7 97.2C21.3 95.3 42.7 91.7 64.2 87.5C85.7 83.3 107.3 78.7 128.8 80.3C150.3 82 171.7 90 193 93.7C214.3 97.3 235.7 96.7 257 92.8C278.3 89 299.7 82 321.2 78.3C342.7 74.7 364.3 74.3 385.8 74.3C407.3 74.3 428.7 74.7 450 77.7C471.3 80.7 492.7 86.3 514.2 90C535.7 93.7 557.3 95.3 578.8 90C600.3 84.7 621.7 72.3 643 71.7C664.3 71 685.7 82 707 85.5C728.3 89 749.7 85 771.2 85.8C792.7 86.7 814.3 92.3 835.8 92.8C857.3 93.3 878.7 88.7 889.3 86.3L900 84L900 101L889.3 101C878.7 101 857.3 101 835.8 101C814.3 101 792.7 101 771.2 101C749.7 101 728.3 101 707 101C685.7 101 664.3 101 643 101C621.7 101 600.3 101 578.8 101C557.3 101 535.7 101 514.2 101C492.7 101 471.3 101 450 101C428.7 101 407.3 101 385.8 101C364.3 101 342.7 101 321.2 101C299.7 101 278.3 101 257 101C235.7 101 214.3 101 193 101C171.7 101 150.3 101 128.8 101C107.3 101 85.7 101 64.2 101C42.7 101 21.3 101 10.7 101L0 101Z" fill="#179afb"></path></svg>