<svg id="visual" viewBox="0 0 900 150" width="900" height="150" xmlns="http://www.w3.org/2000/svg" xmlns:xlink="http://www.w3.org/1999/xlink" version="1.1"><path d="M0 81L45 72L90 78L135 73L180 70L225 81L270 79L315 77L360 78L405 74L450 68L495 67L540 76L585 77L630 81L675 69L720 74L765 78L810 71L855 69L900 75L900 151L855 151L810 151L765 151L720 151L675 151L630 151L585 151L540 151L495 151L450 151L405 151L360 151L315 151L270 151L225 151L180 151L135 151L90 151L45 151L0 151Z" fill="#00edff"></path><path d="M0 82L45 86L90 87L135 80L180 88L225 85L270 91L315 89L360 79L405 85L450 84L495 79L540 80L585 86L630 88L675 79L720 79L765 82L810 79L855 81L900 79L900 151L855 151L810 151L765 151L720 151L675 151L630 151L585 151L540 151L495 151L450 151L405 151L360 151L315 151L270 151L225 151L180 151L135 151L90 151L45 151L0 151Z" fill="#00deff"></path><path d="M0 100L45 97L90 93L135 99L180 92L225 95L270 91L315 92L360 93L405 96L450 90L495 93L540 96L585 95L630 91L675 91L720 97L765 95L810 98L855 100L900 96L900 151L855 151L810 151L765 151L720 151L675 151L630 151L585 151L540 151L495 151L450 151L405 151L360 151L315 151L270 151L225 151L180 151L135 151L90 151L45 151L0 151Z" fill="#00cfff"></path><path d="M0 109L45 107L90 108L135 105L180 110L225 103L270 109L315 103L360 107L405 104L450 109L495 109L540 107L585 107L630 104L675 106L720 103L765 105L810 107L855 106L900 106L900 151L855 151L810 151L765 151L720 151L675 151L630 151L585 151L540 151L495 151L450 151L405 151L360 151L315 151L270 151L225 151L180 151L135 151L90 151L45 151L0 151Z" fill="#00bfff"></path><path d="M0 116L45 118L90 116L135 117L180 114L225 119L270 119L315 118L360 120L405 120L450 119L495 114L540 116L585 117L630 118L675 119L720 115L765 115L810 119L855 116L900 115L900 151L855 151L810 151L765 151L720 151L675 151L630 151L585 151L540 151L495 151L450 151L405 151L360 151L315 151L270 151L225 151L180 151L135 151L90 151L45 151L0 151Z" fill="#00adff"></path><path d="M0 129L45 128L90 127L135 128L180 126L225 129L270 128L315 129L360 127L405 126L450 128L495 128L540 129L585 126L630 126L675 128L720 127L765 127L810 129L855 126L900 126L900 151L855 151L810 151L765 151L720 151L675 151L630 151L585 151L540 151L495 151L450 151L405 151L360 151L315 151L270 151L225 151L180 151L135 151L90 151L45 151L0 151Z" fill="#179afb"></path></svg>