<svg id="visual" viewBox="0 0 900 100" width="900" height="100" xmlns="http://www.w3.org/2000/svg" xmlns:xlink="http://www.w3.org/1999/xlink" version="1.1"><path d="M0 7L9.3 15.2C18.7 23.3 37.3 39.7 56.2 43.2C75 46.7 94 37.3 112.8 31C131.7 24.7 150.3 21.3 169 23C187.7 24.7 206.3 31.3 225 29.3C243.7 27.3 262.3 16.7 281.2 17.2C300 17.7 319 29.3 337.8 36.2C356.7 43 375.3 45 394 40.8C412.7 36.7 431.3 26.3 450 25.2C468.7 24 487.3 32 506.2 35.8C525 39.7 544 39.3 562.8 36.2C581.7 33 600.3 27 619 25.3C637.7 23.7 656.3 26.3 675 27C693.7 27.7 712.3 26.3 731.2 29C750 31.7 769 38.3 787.8 44.5C806.7 50.7 825.3 56.3 844 52.8C862.7 49.3 881.3 36.7 890.7 30.3L900 24L900 101L890.7 101C881.3 101 862.7 101 844 101C825.3 101 806.7 101 787.8 101C769 101 750 101 731.2 101C712.3 101 693.7 101 675 101C656.3 101 637.7 101 619 101C600.3 101 581.7 101 562.8 101C544 101 525 101 506.2 101C487.3 101 468.7 101 450 101C431.3 101 412.7 101 394 101C375.3 101 356.7 101 337.8 101C319 101 300 101 281.2 101C262.3 101 243.7 101 225 101C206.3 101 187.7 101 169 101C150.3 101 131.7 101 112.8 101C94 101 75 101 56.2 101C37.3 101 18.7 101 9.3 101L0 101Z" fill="#1ca2fc"></path><path d="M0 61L9.3 59C18.7 57 37.3 53 56.2 50.2C75 47.3 94 45.7 112.8 42.7C131.7 39.7 150.3 35.3 169 37C187.7 38.7 206.3 46.3 225 46.2C243.7 46 262.3 38 281.2 40.5C300 43 319 56 337.8 56.3C356.7 56.7 375.3 44.3 394 44.3C412.7 44.3 431.3 56.7 450 56C468.7 55.3 487.3 41.7 506.2 37.8C525 34 544 40 562.8 47.3C581.7 54.7 600.3 63.3 619 61.5C637.7 59.7 656.3 47.3 675 41.2C693.7 35 712.3 35 731.2 36.5C750 38 769 41 787.8 42.2C806.7 43.3 825.3 42.7 844 42.3C862.7 42 881.3 42 890.7 42L900 42L900 101L890.7 101C881.3 101 862.7 101 844 101C825.3 101 806.7 101 787.8 101C769 101 750 101 731.2 101C712.3 101 693.7 101 675 101C656.3 101 637.7 101 619 101C600.3 101 581.7 101 562.8 101C544 101 525 101 506.2 101C487.3 101 468.7 101 450 101C431.3 101 412.7 101 394 101C375.3 101 356.7 101 337.8 101C319 101 300 101 281.2 101C262.3 101 243.7 101 225 101C206.3 101 187.7 101 169 101C150.3 101 131.7 101 112.8 101C94 101 75 101 56.2 101C37.3 101 18.7 101 9.3 101L0 101Z" fill="#10adfe"></path><path d="M0 77L9.3 74.5C18.7 72 37.3 67 56.2 65.3C75 63.7 94 65.3 112.8 69C131.7 72.7 150.3 78.3 169 77.7C187.7 77 206.3 70 225 68.2C243.7 66.3 262.3 69.7 281.2 72.8C300 76 319 79 337.8 79.8C356.7 80.7 375.3 79.3 394 79.2C412.7 79 431.3 80 450 76C468.7 72 487.3 63 506.2 56.8C525 50.7 544 47.3 562.8 45.7C581.7 44 600.3 44 619 50.2C637.7 56.3 656.3 68.7 675 70.3C693.7 72 712.3 63 731.2 63C750 63 769 72 787.8 70.5C806.7 69 825.3 57 844 54.7C862.7 52.3 881.3 59.7 890.7 63.3L900 67L900 101L890.7 101C881.3 101 862.7 101 844 101C825.3 101 806.7 101 787.8 101C769 101 750 101 731.2 101C712.3 101 693.7 101 675 101C656.3 101 637.7 101 619 101C600.3 101 581.7 101 562.8 101C544 101 525 101 506.2 101C487.3 101 468.7 101 450 101C431.3 101 412.7 101 394 101C375.3 101 356.7 101 337.8 101C319 101 300 101 281.2 101C262.3 101 243.7 101 225 101C206.3 101 187.7 101 169 101C150.3 101 131.7 101 112.8 101C94 101 75 101 56.2 101C37.3 101 18.7 101 9.3 101L0 101Z" fill="#1ab8ff"></path><path d="M0 92L9.3 92.2C18.7 92.3 37.3 92.7 56.2 92C75 91.3 94 89.7 112.8 86.2C131.7 82.7 150.3 77.3 169 73.8C187.7 70.3 206.3 68.7 225 67.7C243.7 66.7 262.3 66.3 281.2 66.2C300 66 319 66 337.8 69.7C356.7 73.3 375.3 80.7 394 84.8C412.7 89 431.3 90 450 87.3C468.7 84.7 487.3 78.3 506.2 78.3C525 78.3 544 84.7 562.8 86.3C581.7 88 600.3 85 619 83.2C637.7 81.3 656.3 80.7 675 79.2C693.7 77.7 712.3 75.3 731.2 75.7C750 76 769 79 787.8 80.3C806.7 81.7 825.3 81.3 844 82C862.7 82.7 881.3 84.3 890.7 85.2L900 86L900 101L890.7 101C881.3 101 862.7 101 844 101C825.3 101 806.7 101 787.8 101C769 101 750 101 731.2 101C712.3 101 693.7 101 675 101C656.3 101 637.7 101 619 101C600.3 101 581.7 101 562.8 101C544 101 525 101 506.2 101C487.3 101 468.7 101 450 101C431.3 101 412.7 101 394 101C375.3 101 356.7 101 337.8 101C319 101 300 101 281.2 101C262.3 101 243.7 101 225 101C206.3 101 187.7 101 169 101C150.3 101 131.7 101 112.8 101C94 101 75 101 56.2 101C37.3 101 18.7 101 9.3 101L0 101Z" fill="#2ec2ff"></path></svg>