<svg id="visual" viewBox="0 0 900 100" width="900" height="100" xmlns="http://www.w3.org/2000/svg" xmlns:xlink="http://www.w3.org/1999/xlink" version="1.1"><path d="M0 31L10 33.5C20 36 40 41 60 42.8C80 44.7 100 43.3 120 40.8C140 38.3 160 34.7 180 34C200 33.3 220 35.7 240 34.7C260 33.7 280 29.3 300 24.8C320 20.3 340 15.7 360 14.2C380 12.7 400 14.3 420 15C440 15.7 460 15.3 480 15.8C500 16.3 520 17.7 540 16.5C560 15.3 580 11.7 600 15.8C620 20 640 32 660 35.5C680 39 700 34 720 33.7C740 33.3 760 37.7 780 34.3C800 31 820 20 840 18.2C860 16.3 880 23.7 890 27.3L900 31L900 101L890 101C880 101 860 101 840 101C820 101 800 101 780 101C760 101 740 101 720 101C700 101 680 101 660 101C640 101 620 101 600 101C580 101 560 101 540 101C520 101 500 101 480 101C460 101 440 101 420 101C400 101 380 101 360 101C340 101 320 101 300 101C280 101 260 101 240 101C220 101 200 101 180 101C160 101 140 101 120 101C100 101 80 101 60 101C40 101 20 101 10 101L0 101Z" fill="#2077aa"></path><path d="M0 63L10 62.2C20 61.3 40 59.7 60 59.2C80 58.7 100 59.3 120 57.3C140 55.3 160 50.7 180 45.3C200 40 220 34 240 32C260 30 280 32 300 32.2C320 32.3 340 30.7 360 33C380 35.3 400 41.7 420 41.3C440 41 460 34 480 33C500 32 520 37 540 39C560 41 580 40 600 40.3C620 40.7 640 42.3 660 40.2C680 38 700 32 720 31.2C740 30.3 760 34.7 780 37C800 39.3 820 39.7 840 39.3C860 39 880 38 890 37.5L900 37L900 101L890 101C880 101 860 101 840 101C820 101 800 101 780 101C760 101 740 101 720 101C700 101 680 101 660 101C640 101 620 101 600 101C580 101 560 101 540 101C520 101 500 101 480 101C460 101 440 101 420 101C400 101 380 101 360 101C340 101 320 101 300 101C280 101 260 101 240 101C220 101 200 101 180 101C160 101 140 101 120 101C100 101 80 101 60 101C40 101 20 101 10 101L0 101Z" fill="#0e5d85"></path><path d="M0 69L10 67.7C20 66.3 40 63.7 60 62.7C80 61.7 100 62.3 120 64.3C140 66.3 160 69.7 180 69.3C200 69 220 65 240 63.3C260 61.7 280 62.3 300 60.8C320 59.3 340 55.7 360 56.3C380 57 400 62 420 66.2C440 70.3 460 73.7 480 70.7C500 67.7 520 58.3 540 58.3C560 58.3 580 67.7 600 68.5C620 69.3 640 61.7 660 56.3C680 51 700 48 720 47C740 46 760 47 780 47.2C800 47.3 820 46.7 840 46.2C860 45.7 880 45.3 890 45.2L900 45L900 101L890 101C880 101 860 101 840 101C820 101 800 101 780 101C760 101 740 101 720 101C700 101 680 101 660 101C640 101 620 101 600 101C580 101 560 101 540 101C520 101 500 101 480 101C460 101 440 101 420 101C400 101 380 101 360 101C340 101 320 101 300 101C280 101 260 101 240 101C220 101 200 101 180 101C160 101 140 101 120 101C100 101 80 101 60 101C40 101 20 101 10 101L0 101Z" fill="#024562"></path><path d="M0 82L10 82.7C20 83.3 40 84.7 60 86.7C80 88.7 100 91.3 120 88C140 84.7 160 75.3 180 71.7C200 68 220 70 240 70.7C260 71.3 280 70.7 300 72.8C320 75 340 80 360 82.5C380 85 400 85 420 84.8C440 84.7 460 84.3 480 82.3C500 80.3 520 76.7 540 76C560 75.3 580 77.7 600 81C620 84.3 640 88.7 660 86.8C680 85 700 77 720 75.5C740 74 760 79 780 82.2C800 85.3 820 86.7 840 87.8C860 89 880 90 890 90.5L900 91L900 101L890 101C880 101 860 101 840 101C820 101 800 101 780 101C760 101 740 101 720 101C700 101 680 101 660 101C640 101 620 101 600 101C580 101 560 101 540 101C520 101 500 101 480 101C460 101 440 101 420 101C400 101 380 101 360 101C340 101 320 101 300 101C280 101 260 101 240 101C220 101 200 101 180 101C160 101 140 101 120 101C100 101 80 101 60 101C40 101 20 101 10 101L0 101Z" fill="#002e41"></path></svg>