<svg id="visual" viewBox="0 0 900 100" width="900" height="100" xmlns="http://www.w3.org/2000/svg" xmlns:xlink="http://www.w3.org/1999/xlink" version="1.1"><path d="M0 0L12.5 4.7C25 9.3 50 18.7 75 21.8C100 25 125 22 150 27.2C175 32.3 200 45.7 225 46.5C250 47.3 275 35.7 300 33C325 30.3 350 36.7 375 33.8C400 31 425 19 450 17.7C475 16.3 500 25.7 525 29C550 32.3 575 29.7 600 32.3C625 35 650 43 675 48.7C700 54.3 725 57.7 750 54C775 50.3 800 39.7 825 30.8C850 22 875 15 887.5 11.5L900 8L900 101L887.5 101C875 101 850 101 825 101C800 101 775 101 750 101C725 101 700 101 675 101C650 101 625 101 600 101C575 101 550 101 525 101C500 101 475 101 450 101C425 101 400 101 375 101C350 101 325 101 300 101C275 101 250 101 225 101C200 101 175 101 150 101C125 101 100 101 75 101C50 101 25 101 12.5 101L0 101Z" fill="#28e1fd"></path><path d="M0 38L12.5 35.8C25 33.7 50 29.3 75 34.3C100 39.3 125 53.7 150 59.2C175 64.7 200 61.3 225 56.3C250 51.3 275 44.7 300 40C325 35.3 350 32.7 375 30.3C400 28 425 26 450 31.5C475 37 500 50 525 53C550 56 575 49 600 42.5C625 36 650 30 675 27C700 24 725 24 750 26.2C775 28.3 800 32.7 825 38.3C850 44 875 51 887.5 54.5L900 58L900 101L887.5 101C875 101 850 101 825 101C800 101 775 101 750 101C725 101 700 101 675 101C650 101 625 101 600 101C575 101 550 101 525 101C500 101 475 101 450 101C425 101 400 101 375 101C350 101 325 101 300 101C275 101 250 101 225 101C200 101 175 101 150 101C125 101 100 101 75 101C50 101 25 101 12.5 101L0 101Z" fill="#02a7ce"></path><path d="M0 64L12.5 60.3C25 56.7 50 49.3 75 46.8C100 44.3 125 46.7 150 53.5C175 60.3 200 71.7 225 73.7C250 75.7 275 68.3 300 64.8C325 61.3 350 61.7 375 58.2C400 54.7 425 47.3 450 44C475 40.7 500 41.3 525 49.2C550 57 575 72 600 72.7C625 73.3 650 59.7 675 56.3C700 53 725 60 750 64.8C775 69.7 800 72.3 825 72.2C850 72 875 69 887.5 67.5L900 66L900 101L887.5 101C875 101 850 101 825 101C800 101 775 101 750 101C725 101 700 101 675 101C650 101 625 101 600 101C575 101 550 101 525 101C500 101 475 101 450 101C425 101 400 101 375 101C350 101 325 101 300 101C275 101 250 101 225 101C200 101 175 101 150 101C125 101 100 101 75 101C50 101 25 101 12.5 101L0 101Z" fill="#06709b"></path><path d="M0 93L12.5 91.8C25 90.7 50 88.3 75 85.7C100 83 125 80 150 78.5C175 77 200 77 225 76.2C250 75.3 275 73.7 300 71.3C325 69 350 66 375 68.7C400 71.3 425 79.7 450 82.7C475 85.7 500 83.3 525 85C550 86.7 575 92.3 600 91.8C625 91.3 650 84.7 675 79.8C700 75 725 72 750 74.7C775 77.3 800 85.7 825 90C850 94.3 875 94.7 887.5 94.8L900 95L900 101L887.5 101C875 101 850 101 825 101C800 101 775 101 750 101C725 101 700 101 675 101C650 101 625 101 600 101C575 101 550 101 525 101C500 101 475 101 450 101C425 101 400 101 375 101C350 101 325 101 300 101C275 101 250 101 225 101C200 101 175 101 150 101C125 101 100 101 75 101C50 101 25 101 12.5 101L0 101Z" fill="#093e64"></path></svg>