<?xml version="1.0" standalone="no"?>
<!DOCTYPE svg PUBLIC "-//W3C//DTD SVG 1.0//EN" "http://www.w3.org/TR/2001/REC-SVG-20010904/DTD/svg10.dtd">
<svg xmlns="http://www.w3.org/2000/svg" xmlns:xlink="http://www.w3.org/1999/xlink" id="body_1" width="430" height="323">

<g transform="matrix(0.91242945 0 0 0.91242945 53.5 -0)">
	<g>
		<g>
			<g>
				<g>
					<g>
						<g>
                            <path d="M177 221.5L177 187.3C 213.2 187.3 241.3 151.4 227.4 113.3C 222.3 99.3 211 88 196.9 82.9C 158.79999 69.1 122.899994 97.1 122.899994 133.3C 122.899994 133.3 122.899994 133.3 122.899994 133.3L122.899994 133.3L88.799995 133.3C 88.799995 75.600006 144.59999 30.600006 205.1 49.5C 231.5 57.8 252.6 78.8 260.80002 105.2C 279.7 165.7 234.7 221.5 177 221.5z" stroke="none" fill="#0080FF" fill-rule="nonzero" />
						</g>
                        <path d="M177.1 187.5L143 187.5L143 153.4L143 153.4L177.1 153.4L177.1 153.4L177.1 187.5" stroke="none" fill="#0080FF" fill-rule="nonzero" />
                        <path d="M143 213.6L116.9 213.6L116.9 213.6L116.9 187.5L143 187.5L143 213.6L143 213.6" stroke="none" fill="#0080FF" fill-rule="nonzero" />
                        <path d="M116.9 187.5L95 187.5C 95 187.5 95 187.5 95 187.5L95 187.5L95 165.6C 95 165.6 95 165.6 95 165.6L95 165.6L116.9 165.6C 116.9 165.6 116.9 165.6 116.9 165.6L116.9 165.6L116.9 187.5z" stroke="none" fill="#0080FF" fill-rule="nonzero" />
					</g>
				</g>
			</g>
		</g>
		<g>
            <path d="M31.2 256.1C 26.800001 253 21.2 251.5 14.800001 251.5L14.800001 251.5L0.8 251.5L0.8 296L14.900001 296C 21.300001 296 26.900002 294.4 31.3 291.1C 33.7 289.4 35.6 287 37 284C 38.3 281 39 277.4 39 273.5C 39 269.6 38.3 266.1 37 263.1C 35.6 260.1 33.7 257.7 31.2 256.1zM9 259L13.4 259C 18.3 259 22.3 260 25.4 261.9C 28.8 264 30.5 267.9 30.5 273.5C 30.5 279.3 28.8 283.4 25.4 285.6C 22.5 287.5 18.5 288.5 13.5 288.5L13.5 288.5L9 288.5L9 259z" stroke="none" fill="#0080FF" fill-rule="nonzero" />
            <path d="M48.7 250.9C 47.3 250.9 46.2 251.4 45.2 252.29999C 44.3 253.19998 43.8 254.29999 43.8 255.69998C 43.8 257.09998 44.3 258.19998 45.2 259.19998C 46.100002 260.09998 47.3 260.59998 48.7 260.59998C 50 260.59998 51.2 260.09998 52.2 259.19998C 53.100002 258.3 53.600002 257.09998 53.600002 255.69998C 53.600002 254.29999 53.100002 253.19998 52.2 252.29999C 51.2 251.4 50 250.9 48.7 250.9z" stroke="none" fill="#0080FF" fill-rule="nonzero" />
            <path d="M44.7 264.6L52.600002 264.6L52.600002 296L44.7 296z" stroke="none" fill="#0080FF" fill-rule="nonzero" />
            <path d="M81.3 267.2C 78.9 265.1 76.3 263.80002 73.4 263.80002C 69 263.80002 65.4 265.30002 62.600002 268.30002C 59.800003 271.2 58.300003 275.00003 58.300003 279.6C 58.300003 284 59.700005 287.80002 62.500004 290.80002C 65.3 293.7 69 295.2 73.3 295.2C 76.3 295.2 79 294.40002 81.100006 292.7L81.100006 292.7L81.100006 293.40002C 81.100006 296.00003 80.40001 298.00003 79.00001 299.40002C 77.600006 300.80002 75.700005 301.50003 73.30001 301.50003C 69.70001 301.50003 67.40001 300.10004 64.60001 296.30002L64.60001 296.30002L59.200012 301.50003L59.30001 301.70004C 60.50001 303.30005 62.200012 304.90005 64.60001 306.40005C 66.90002 307.90005 69.90002 308.70004 73.40002 308.70004C 78.10001 308.70004 81.90002 307.30005 84.70002 304.40005C 87.50002 301.50006 88.90002 297.70004 88.90002 293.00006L88.90002 293.00006L88.90002 264.50006L81.10001 264.50006L81.10001 267.2L81.3 267.2zM79.2 285.8C 77.799995 287.4 76 288.09998 73.799995 288.09998C 71.49999 288.09998 69.799995 287.3 68.399994 285.8C 66.99999 284.19998 66.399994 282.19998 66.399994 279.69998C 66.399994 277.09998 67.09999 275.09998 68.399994 273.49997C 69.7 271.89996 71.59999 271.19998 73.799995 271.19998C 76.1 271.19998 77.799995 271.99997 79.2 273.49997C 80.6 275.09998 81.299995 277.19998 81.299995 279.69998C 81.3 282.2 80.6 284.2 79.2 285.8z" stroke="none" fill="#0080FF" fill-rule="nonzero" />
            <path d="M95.8 264.6L103.700005 264.6L103.700005 296L95.8 296z" stroke="none" fill="#0080FF" fill-rule="nonzero" />
            <path d="M99.8 250.9C 98.4 250.9 97.3 251.4 96.3 252.29999C 95.4 253.19998 94.9 254.29999 94.9 255.69998C 94.9 257.09998 95.4 258.19998 96.3 259.19998C 97.200005 260.09998 98.4 260.59998 99.8 260.59998C 101.100006 260.59998 102.3 260.09998 103.3 259.19998C 104.200005 258.3 104.700005 257.09998 104.700005 255.69998C 104.700005 254.29999 104.200005 253.19998 103.3 252.29999C 102.3 251.4 101.2 250.9 99.8 250.9z" stroke="none" fill="#0080FF" fill-rule="nonzero" />
            <path d="M121 256.1L113.2 256.1L113.2 264.6L108.7 264.6L108.7 271.80002L113.2 271.80002L113.2 284.80002C 113.2 288.90002 114 291.80002 115.6 293.50003C 117.2 295.20004 120.1 296.00003 124.1 296.00003C 125.4 296.00003 126.7 296.00003 127.9 295.90002L127.9 295.90002L128.3 295.90002L128.3 288.7L125.600006 288.80002C 123.700005 288.80002 122.50001 288.50003 121.90001 287.80002C 121.30001 287.1 121.00001 285.7 121.00001 283.6L121.00001 283.6L121.00001 271.7L128.40001 271.7L128.40001 264.5L121 264.5L121 256.1z" stroke="none" fill="#0080FF" fill-rule="nonzero" />
            <path d="M165.4 251.4L173.29999 251.4L173.29999 296L165.4 296z" stroke="none" fill="#0080FF" fill-rule="nonzero" />
            <path d="M253.1 284.8C 251.70001 286.4 250.20001 287.8 249.1 288.5C 248 289.2 246.6 289.6 245 289.6C 242.7 289.6 240.8 288.80002 239.3 287C 237.8 285.3 237 283 237 280.4C 237 277.69998 237.8 275.5 239.3 273.8C 240.8 272.09998 242.7 271.19998 245 271.19998C 247.5 271.19998 250.2 272.8 252.5 275.49997L252.5 275.49997L257.7 270.49997C 254.30002 266.09998 250.00002 263.99997 244.80002 263.99997C 240.50002 263.99997 236.70001 265.59998 233.60002 268.69998C 230.50002 271.8 229.00002 275.69998 229.00002 280.4C 229.00002 285.1 230.60002 289 233.60002 292.1C 236.70003 295.2 240.40002 296.80002 244.80002 296.80002C 250.50002 296.80002 255.10002 294.30002 258.30002 289.80002L258.30002 289.80002L253.1 284.8z" stroke="none" fill="#0080FF" fill-rule="nonzero" />
            <path d="M285.6 269C 284.5 267.4 283 266.2 281.1 265.3C 279.2 264.4 277 263.9 274.6 263.9C 270.2 263.9 266.6 265.5 263.9 268.69998C 261.3 271.9 259.9 275.8 259.9 280.49997C 259.9 285.29996 261.4 289.19998 264.19998 292.19998C 267.09998 295.19998 270.9 296.69998 275.59998 296.69998C 280.89996 296.69998 285.3 294.49997 288.59998 290.3L288.59998 290.3L288.8 290.09998L283.59998 285.09998C 283.09998 285.69998 282.39996 286.3 281.8 286.89996C 281 287.59998 280.3 288.19995 279.5 288.59998C 278.3 289.19998 277 289.49997 275.5 289.49997C 273.3 289.49997 271.5 288.89996 270.1 287.59998C 268.80002 286.39996 268 284.8 267.80002 282.8L267.80002 282.8L288.7 282.8L288.80002 279.9C 288.80002 277.9 288.50003 275.9 288.00003 274.1C 287.5 272.3 286.7 270.6 285.6 269zM268.3 276.4C 268.69998 274.9 269.4 273.6 270.4 272.69998C 271.5 271.59998 272.9 271.09998 274.5 271.09998C 276.4 271.09998 277.9 271.59998 278.9 272.69998C 279.8 273.69998 280.4 274.9 280.5 276.4L280.5 276.4L268.3 276.4z" stroke="none" fill="#0080FF" fill-rule="nonzero" />
            <path d="M315.9 267C 313.5 265 310.19998 263.9 306.1 263.9C 303.5 263.9 301 264.5 298.80002 265.6C 296.7 266.6 294.7 268.4 293.40002 270.6L293.40002 270.6L293.50003 270.7L298.60004 275.5C 300.70004 272.2 303.00003 271 306.10004 271C 307.80005 271 309.10004 271.4 310.20004 272.3C 311.20004 273.19998 311.80005 274.3 311.80005 275.69998L311.80005 275.69998L311.80005 277.19998C 309.80005 276.59998 307.90005 276.3 306.00006 276.3C 302.10007 276.3 298.90005 277.19998 296.50006 279C 294.10007 280.8 292.90005 283.5 292.90005 286.9C 292.90005 289.9 293.90005 292.19998 296.00006 294C 298.10007 295.7 300.60007 296.6 303.60007 296.6C 306.60007 296.6 309.40005 295.4 312.00006 293.30002L312.00006 293.30002L312.00006 295.90002L319.80005 295.90002L319.80005 275.7C 319.5 272 318.3 269 315.9 267zM301.9 284C 302.8 283.4 304.1 283.1 305.69998 283.1C 307.59998 283.1 309.59998 283.5 311.69998 284.2L311.69998 284.2L311.69998 287.30002C 309.99997 288.90002 307.69998 289.7 304.9 289.7C 303.5 289.7 302.5 289.40002 301.69998 288.80002C 300.99997 288.2 300.59998 287.50003 300.59998 286.50003C 300.6 285.4 301 284.6 301.9 284z" stroke="none" fill="#0080FF" fill-rule="nonzero" />
            <path d="M349.9 267.6C 347.69998 265.1 344.6 263.9 340.69998 263.9C 337.59998 263.9 334.99997 264.8 333.09998 266.6L333.09998 266.6L333.09998 264.7L325.39996 264.7L325.39996 296L333.29996 296L333.29996 278.7C 333.29996 276.30002 333.89996 274.40002 334.99997 273.1C 336.09998 271.80002 337.59998 271.1 339.69998 271.1C 341.49997 271.1 342.8 271.7 343.8 272.9C 344.8 274.1 345.3 275.8 345.3 277.8L345.3 277.8L345.3 296L353.19998 296L353.19998 277.8C 353.2 273.5 352.1 270 349.9 267.6z" stroke="none" fill="#0080FF" fill-rule="nonzero" />
            <path d="M155.5 267C 153.1 265 149.8 263.9 145.7 263.9C 143.09999 263.9 140.59999 264.5 138.4 265.6C 136.29999 266.6 134.29999 268.4 133 270.6L133 270.6L133.1 270.7L138.20001 275.5C 140.30002 272.2 142.6 271 145.70001 271C 147.40001 271 148.70001 271.4 149.80002 272.3C 150.80002 273.19998 151.40002 274.3 151.40002 275.69998L151.40002 275.69998L151.40002 277.19998C 149.40002 276.59998 147.50003 276.3 145.60002 276.3C 141.70003 276.3 138.50002 277.19998 136.10002 279C 133.70003 280.8 132.50002 283.5 132.50002 286.9C 132.50002 289.9 133.50002 292.19998 135.60002 294C 137.70003 295.7 140.20003 296.6 143.20003 296.6C 146.20003 296.6 149.00003 295.4 151.60002 293.30002L151.60002 293.30002L151.60002 295.90002L159.40002 295.90002L159.40002 275.7C 159.1 272 157.9 269 155.5 267zM141.5 284C 142.4 283.4 143.7 283.1 145.3 283.1C 147.2 283.1 149.2 283.5 151.3 284.2L151.3 284.2L151.3 287.30002C 149.6 288.90002 147.3 289.7 144.5 289.7C 143.1 289.7 142.1 289.40002 141.3 288.80002C 140.6 288.2 140.2 287.50003 140.2 286.50003C 140.2 285.4 140.6 284.6 141.5 284z" stroke="none" fill="#0080FF" fill-rule="nonzero" />
            <path d="M202 296.7C 189.3 296.7 179 286.40002 179 273.7C 179 261 189.3 250.70001 202 250.70001C 214.7 250.70001 225 261 225 273.7C 225 286.40002 214.7 296.7 202 296.7zM202 258.8C 193.8 258.8 187.1 265.5 187.1 273.69998C 187.1 281.89996 193.8 288.59998 202 288.59998C 210.2 288.59998 216.9 281.89996 216.9 273.69998C 216.9 265.5 210.2 258.8 202 258.8z" stroke="none" fill="#0080FF" fill-rule="nonzero" />
		</g>
	</g>
</g>
</svg>