<svg version="1.2" xmlns="http://www.w3.org/2000/svg" viewBox="0 0 1528 870" width="1528" height="870">
	<title>emvigo-svg</title>
	<defs>
		<clipPath clipPathUnits="userSpaceOnUse" id="cp1">
			<path d="m-62-207h1684.79v1333.33h-1684.79z"/>
		</clipPath>
	</defs>
	<style>
		.s0 { fill: #0c0205 } 
		.s1 { fill: #00b6db } 
		.s2 { fill: #000003 } 
	</style>
	<g id="g10">
		<g id="g12">
			<g id="Clip-Path: Clip-Path: g14" clip-path="url(#cp1)">
				<g id="Clip-Path: g14">
					<g id="g14">
						<g id="g20">
							<path id="path22" fill-rule="evenodd" class="s0" d="m248.9 751.5q0-1.3 0.8-2.1 0.9-0.8 2.2-0.8 1.2 0 2 0.8 0.9 0.8 0.9 2.3v69.4q0 1.4-0.9 2.3-0.8 0.8-2 0.8-1.3 0-2.2-0.8-0.8-0.9-0.8-2.1z"/>
						</g>
						<g id="g24">
							<path id="path26" fill-rule="evenodd" class="s0" d="m265.8 751.5q0-1.3 0.7-2.1 0.8-0.8 2.1-0.8 1.2 0 2.1 0.8 0.8 0.8 0.9 2.1v2.1q-0.1 1.2-0.9 2-0.9 0.8-2.1 0.8-1.3 0-2.1-0.8-0.7-0.8-0.7-2zm0 69.9q0 1.2 0.7 2 0.8 0.8 2.1 0.8 1.2 0 2.1-0.8 0.8-0.8 0.9-2v-48.9q-0.1-1.2-0.9-2.1-0.9-0.9-2.1-0.9-1.3 0-2.1 0.9-0.7 0.9-0.7 2.1z"/>
						</g>
						<g id="g28">
							<path id="path30" fill-rule="evenodd" class="s0" d="m311.7 818.6q-0.8 2.5-3 4.1-2.2 1.5-5 1.5-2.7 0-4.9-1.5-2.2-1.6-3-4.1l-12.9-44.5q-0.1-0.3-0.2-0.8-0.2-0.6-0.2-0.8 0-1.2 0.8-2.1 0.8-0.8 2-0.8 2.3 0 2.9 2l13.2 45.2q0.5 1.8 2.3 1.8 2.1 0 2.4-1.7l13.3-45.4q0.3-0.7 1-1.3 0.8-0.6 1.8-0.6 1.2 0 2 0.8 0.9 0.9 0.9 2.1 0 0.7-0.1 1z"/>
						</g>
						<g id="g32">
							<path id="path34" fill-rule="evenodd" class="s0" d="m336.1 751.5q0-1.3 0.7-2.1 0.8-0.8 2.1-0.8 1.2 0 2.1 0.8 0.9 0.8 0.8 2.1v2.1q0.1 1.2-0.8 2-0.9 0.8-2.1 0.8-1.3 0-2.1-0.8-0.7-0.8-0.7-2zm0 69.9q0 1.2 0.7 2 0.8 0.8 2.1 0.8 1.2 0 2.1-0.8 0.9-0.8 0.8-2v-48.9q0.1-1.2-0.8-2.1-0.9-0.9-2.1-0.9-1.3 0-2.1 0.9-0.7 0.9-0.7 2.1z"/>
						</g>
						<g id="g36">
							<path id="path38" fill-rule="evenodd" class="s0" d="m388.3 786.8q0-2.8-0.9-5.1-0.9-2.4-2.5-4.1-1.5-1.7-3.6-2.6-2.1-0.9-4.4-0.9h-18.3v47q0 1.4-0.9 2.3-0.9 0.8-2.1 0.8-1.2 0-2-0.8-0.8-0.9-0.8-2.1v-48q0-1.9 1.2-3.3 1.3-1.4 3.4-1.4h19.5q3.4 0 6.6 1.2 3.1 1.2 5.5 3.5 2.4 2.4 3.7 5.8 1.4 3.4 1.4 7.7v34.5q0 1.2-0.9 2.1-0.8 0.8-2 0.8-1.2 0-2.1-0.8-0.8-0.9-0.8-2.1z"/>
						</g>
						<g id="g40">
							<path id="path42" fill-rule="evenodd" class="s0" d="m441.8 768.6q1.8 0 3.1 1.3 1.3 1.3 1.3 3.2v50.9q0 6.4-1 11.1-0.9 4.7-3.2 7.8-2.3 3.1-6.2 4.7-3.9 1.6-9.8 1.6h-16.8q-1.3 0-2.1-0.8-0.7-0.8-0.7-2 0-2.7 2.7-2.7h16.8q4.1 0 6.9-1.2 2.8-1.3 4.4-3.8 1.6-2.4 2.4-6 0.7-3.7 0.8-8.5h-18.2q-3.5 0-6.5-1.2-3.1-1.2-5.5-3.5-2.4-2.4-3.8-5.8-1.4-3.3-1.3-7.6v-16.9q-0.1-2.9 0.9-6.5 0.9-3.6 2.9-6.7 2.1-3.2 5.4-5.3 3.3-2.1 8.1-2.1zm-1.4 5.8h-17.9q-5 0-8.3 4.1-3.3 4.2-3.3 11.1v16.5q0 2.8 0.9 5.2 0.9 2.3 2.5 4 1.5 1.6 3.6 2.5 2.1 1 4.4 1h18.1z"/>
						</g>
						<g id="g44">
							<path id="path46" fill-rule="evenodd" class="s0" d="m457.1 816.9q0-1.3 0.9-2.2 0.8-1 2.3-1 1.2 0 2.1 1 0.9 0.9 0.9 2.2v3.9q0 1.6-0.9 2.5-0.9 0.9-2.1 0.9-1.5 0-2.3-0.8-0.9-0.9-0.9-2.3z"/>
						</g>
						<g id="g48">
							<path id="path50" fill-rule="evenodd" class="s0" d="m474.3 816.9q0-1.3 0.8-2.2 0.9-1 2.3-1 1.2 0 2.2 1 0.9 0.9 0.9 2.2v3.9q0 1.6-0.9 2.5-1 0.9-2.2 0.9-1.4 0-2.3-0.8-0.8-0.9-0.8-2.3z"/>
						</g>
						<g id="g52">
							<path id="path54" fill-rule="evenodd" class="s0" d="m491.4 816.9q0-1.3 0.9-2.2 0.9-1 2.3-1 1.2 0 2.1 1 1 0.9 1 2.2v3.9q0 1.6-1 2.5-0.9 0.9-2.1 0.9-1.4 0-2.3-0.8-0.9-0.9-0.9-2.3z"/>
						</g>
						<g id="g56">
							<path id="path58" fill-rule="evenodd" class="s0" d="m508.6 816.9q0-1.3 0.9-2.2 0.8-1 2.3-1 1.2 0 2.1 1 0.9 0.9 0.9 2.2v3.9q0 1.6-0.9 2.5-0.9 0.9-2.1 0.9-1.5 0-2.3-0.8-0.9-0.9-0.9-2.3z"/>
						</g>
						<g id="g60">
							<path id="path62" fill-rule="evenodd" class="s0" d="m525.8 816.9q0-1.3 0.8-2.2 0.9-1 2.3-1 1.2 0 2.2 1 0.9 0.9 0.9 2.2v3.9q0 1.6-0.9 2.5-1 0.9-2.2 0.9-1.4 0-2.3-0.8-0.8-0.9-0.8-2.3z"/>
						</g>
						<g id="g64">
							<path id="path66" fill-rule="evenodd" class="s0" d="m542.9 751.5q0-1.3 0.8-2.1 0.8-0.8 2.1-0.8 1.2 0 2 0.8 0.9 0.8 0.9 2.1v2.1q0 1.2-0.9 2-0.8 0.8-2 0.8-1.3 0-2.1-0.8-0.8-0.8-0.8-2zm0 69.9q0 1.2 0.8 2 0.8 0.8 2.1 0.8 1.2 0 2-0.8 0.9-0.8 0.9-2v-48.9q0-1.2-0.9-2.1-0.8-0.9-2-0.9-1.3 0-2.1 0.9-0.8 0.9-0.8 2.1z"/>
						</g>
						<g id="g68">
							<path id="path70" fill-rule="evenodd" class="s0" d="m595.2 786.8q0-2.8-0.9-5.1-1-2.4-2.5-4.1-1.5-1.7-3.6-2.6-2.1-0.9-4.4-0.9h-18.3v47q-0.1 1.4-0.9 2.3-0.9 0.8-2.1 0.8-1.2 0-2-0.8-0.8-0.9-0.8-2.1v-48q0-1.9 1.2-3.3 1.3-1.4 3.4-1.4h19.5q3.4 0 6.5 1.2 3.1 1.2 5.6 3.5 2.3 2.4 3.7 5.8 1.4 3.4 1.4 7.7v34.5q0 1.2-0.9 2.1-0.9 0.8-2.1 0.8-1.2 0-2-0.8-0.8-0.9-0.8-2.1z"/>
						</g>
						<g id="g72">
							<path id="path74" fill-rule="evenodd" class="s0" d="m647.5 786.8q0-2.8-1-5.1-0.9-2.4-2.4-4.1-1.6-1.7-3.6-2.6-2.1-0.9-4.4-0.9h-18.4v47q0 1.4-0.9 2.3-0.8 0.8-2 0.8-1.2 0-2.1-0.8-0.8-0.9-0.8-2.1v-48q0-1.9 1.3-3.3 1.2-1.4 3.3-1.4h19.6q3.4 0 6.5 1.2 3.1 1.2 5.5 3.5 2.4 2.4 3.8 5.8 1.4 3.4 1.4 7.7v34.5q0 1.2-0.9 2.1-0.9 0.8-2.1 0.8-1.2 0-2-0.8-0.8-0.9-0.8-2.1z"/>
						</g>
						<g id="g76">
							<path id="path78" fill-rule="evenodd" class="s0" d="m682.4 824.9q-3.9 0-7.2-1.4-3.4-1.3-5.8-3.9-2.5-2.5-3.8-6-1.4-3.6-1.4-7.9v-16.7q0-4.3 1.4-8.1 1.3-3.7 3.7-6.4 2.4-2.7 5.8-4.3 3.4-1.5 7.3-1.5h6.7q4 0 7.3 1.5 3.3 1.6 5.7 4.3 2.4 2.7 3.8 6.4 1.4 3.8 1.4 8.1v16.7q0 4.3-1.4 7.9-1.4 3.5-3.8 6-2.5 2.6-5.8 3.9-3.4 1.4-7.2 1.4zm6.7-5.5q2.6 0 4.9-1.1 2.3-1.1 3.9-2.9 1.7-1.9 2.7-4.4 1-2.5 1-5.3v-16.7q0-2.8-1-5.5-1-2.7-2.7-4.7-1.6-2.1-3.9-3.4-2.3-1.2-4.9-1.2h-6.7q-2.6 0-4.9 1.2-2.3 1.3-4 3.4-1.7 2-2.6 4.7-0.9 2.7-0.9 5.5v16.7q0 2.8 0.9 5.3 0.9 2.5 2.6 4.4 1.7 1.8 4 2.9 2.3 1.1 4.9 1.1z"/>
						</g>
						<g id="g80">
							<path id="path82" fill-rule="evenodd" class="s0" d="m744.3 818.6q-0.7 2.5-2.9 4.1-2.2 1.5-5 1.5-2.8 0-5-1.5-2.2-1.6-2.9-4.1l-12.9-44.5q-0.1-0.3-0.3-0.8-0.2-0.6-0.2-0.8 0-1.2 0.9-2.1 0.8-0.8 2-0.8 2.3 0 2.8 2l13.3 45.2q0.5 1.8 2.3 1.8 2 0 2.4-1.7l13.3-45.4q0.2-0.7 1-1.3 0.7-0.6 1.7-0.6 1.2 0 2.1 0.8 0.9 0.9 0.9 2.1 0 0.7-0.1 1z"/>
						</g>
						<g id="g84">
							<path id="path86" fill-rule="evenodd" class="s0" d="m769 771.3q0-1.2 0.8-1.9 0.8-0.8 2-0.8h19.8q3.2 0 6 1.2 2.7 1.2 4.7 3.3 1.9 2.2 3.1 5.1 1 3 1 6.3v35.4q0 1.8-1.2 3.1-1.3 1.2-3.1 1.2h-20.5q-3.3 0-6.2-1.2-2.9-1.2-5-3.3-2.1-2.1-3.3-5-1.2-2.8-1.2-6.1 0-3.3 1.2-6.1 1.2-2.9 3.3-5 2.1-2.1 5-3.4 2.9-1.2 6.2-1.2h19v-8q0-4.6-2.4-7.7-2.4-3.1-6.6-3.1h-19.6q-3-0.1-3-2.8zm31.6 47.3v-20.2h-19q-2.1 0-3.9 0.9-1.9 0.8-3.2 2.1-1.4 1.4-2.2 3.3-0.7 1.8-0.7 3.9 0 2.1 0.7 3.9 0.8 1.8 2.2 3.2 1.3 1.3 3.2 2.1 1.8 0.8 3.9 0.8z"/>
						</g>
						<g id="g88">
							<path id="path90" fill-rule="evenodd" class="s0" d="m822.9 760.5q0-1.2 0.9-2.1 0.8-0.9 2-0.9 1.2 0 2.1 0.9 0.8 0.9 0.8 2.1v9h14.6q1.4 0 2.2 0.8 0.8 0.9 0.8 2.1 0 1.2-0.8 2-0.8 0.9-2.1 0.9h-14.7v30.8q0 6.1 2.3 9.2 2.3 3.1 8.3 3.1h4.1q1.3 0 2.1 0.9 0.8 0.9 0.8 2.1 0 1.2-0.8 2-0.8 0.8-2.1 0.8h-4.1q-8.9 0-12.6-4.6-3.7-4.6-3.8-13.5v-30.8h-5.8q-1.2 0-2-0.9-0.8-0.8-0.8-2 0-1.2 0.8-2.1 0.8-0.8 2-0.8h5.8z"/>
						</g>
						<g id="g92">
							<path id="path94" fill-rule="evenodd" class="s0" d="m857.3 751.5q0-1.3 0.7-2.1 0.8-0.8 2.1-0.8 1.2 0 2.1 0.8 0.9 0.8 0.9 2.1v2.1q0 1.2-0.9 2-0.9 0.8-2.1 0.8-1.3 0-2.1-0.8-0.7-0.8-0.7-2zm0 69.9q0 1.2 0.7 2 0.8 0.8 2.1 0.8 1.2 0 2.1-0.8 0.9-0.8 0.9-2v-48.9q0-1.2-0.9-2.1-0.9-0.9-2.1-0.9-1.3 0-2.1 0.9-0.7 0.9-0.7 2.1z"/>
						</g>
						<g id="g96">
							<path id="path98" fill-rule="evenodd" class="s0" d="m892.3 824.9q-4 0-7.3-1.4-3.3-1.3-5.8-3.9-2.5-2.5-3.8-6-1.4-3.6-1.4-7.9v-16.7q0-4.3 1.4-8.1 1.3-3.7 3.8-6.4 2.4-2.7 5.7-4.3 3.4-1.5 7.4-1.5h6.7q3.9 0 7.2 1.5 3.4 1.6 5.7 4.3 2.5 2.7 3.8 6.4 1.4 3.8 1.4 8.1v16.7q0 4.3-1.4 7.9-1.3 3.5-3.8 6-2.5 2.6-5.8 3.9-3.3 1.4-7.1 1.4zm6.6-5.5q2.6 0 4.9-1.1 2.3-1.1 4-2.9 1.6-1.9 2.6-4.4 1-2.5 1-5.3v-16.7q0-2.8-1-5.5-1-2.7-2.6-4.7-1.7-2.1-4-3.4-2.3-1.2-4.9-1.2h-6.6q-2.7 0-5 1.2-2.3 1.3-4 3.4-1.7 2-2.6 4.7-0.9 2.7-0.9 5.5v16.7q0 2.8 0.9 5.3 0.9 2.5 2.6 4.4 1.7 1.8 4 2.9 2.3 1.1 5 1.1z"/>
						</g>
						<g id="g100">
							<path id="path102" fill-rule="evenodd" class="s0" d="m963.6 786.8q0-2.8-1-5.1-0.9-2.4-2.4-4.1-1.6-1.7-3.6-2.6-2.1-0.9-4.4-0.9h-18.4v47q0 1.4-0.9 2.3-0.8 0.8-2 0.8-1.2 0-2.1-0.8-0.8-0.9-0.8-2.1v-48q0-1.9 1.3-3.3 1.2-1.4 3.3-1.4h19.6q3.4 0 6.5 1.2 3.1 1.2 5.5 3.5 2.4 2.4 3.8 5.8 1.4 3.4 1.4 7.7v34.5q0 1.2-0.9 2.1-0.9 0.8-2.1 0.8-1.2 0-2-0.8-0.8-0.9-0.8-2.1z"/>
						</g>
						<g id="g104">
							<path id="path106" fill-rule="evenodd" class="s1" d="m114 732.1q-12.6 0-23.9-0.5-11.4-0.4-21.5-3.1-10.1-2.7-18.5-8.6-8.4-5.9-15.1-16.9-7.2-12.1-9.3-30.9-2.1-18.7-2.1-49v-29q0-13.9 1.5-25.9 1.4-11.9 5.2-22 3.8-10.1 11.4-17.7 7.5-8 19.1-12.4 11.6-4.4 25.5-6.5 13.8-2.1 29.2-2.6 15.3-0.4 31.3-0.4 34.1 0 56.4 2.1 22.3 2.1 35.7 13.1 8 6.3 12.9 15.5 4.8 9.3 7.3 19.4 2.6 10.1 3.2 20.4 0.6 10.3 0.6 19.5 0 11-1.9 22.1-1.9 11.2-11.5 18.7-5.5 4.7-10.8 5.5-5.2 0.8-11.1 0.8h-121.6q-0.4 4.7 0.7 9.7 1 5.1 3.1 8.4 5.5 8.4 15.8 9.5 10.3 1 21.2 1h108.1v59.8zm53-140.5q8.9 0 11.2-4.2 2.3-4.2 2.3-7.6 0-4.6-3-8.8-2.9-4.2-12.1-6.3-5.1-0.9-11.8-1.3-6.8-0.4-10.1-0.4-7.2 0-15.6 0.6-8.4 0.6-13 3.2-6.3 3.3-8 9.8-1.7 6.6-0.9 15z"/>
						</g>
						<g id="g108">
							<path id="path110" fill-rule="evenodd" class="s1" d="m283.1 549.1q0-5 1.5-11.8 1.4-6.7 6.5-13 8.4-10.9 19.6-13.1 11.1-2.1 24.6-2.1h191.3q19 0 37.9 5.3 18.9 5.3 31.5 17 11.8 11 17.7 27.8 5.9 16.8 5.9 32.4v140.5h-82.4v-123.7q0-7.1-1.5-16.2-1.5-9-7.4-15.3-3.3-3.8-10.1-6.8-6.7-2.9-16.4-2.9h-9.2v164.9h-82.5v-164.9h-31.5q-5.5 0-7.8 1.3-2.3 1.2-3.2 2-1.2 1.7-1.6 4.9-0.5 3.1-0.5 6.5v150.2h-82.4z"/>
						</g>
						<g id="g112">
							<path id="path114" fill-rule="evenodd" class="s1" d="m758.8 637.8q0.9 2.2 2.1 4.9 1.3 2.7 3.4 2.7 2.1 0 3.3-2.7 1.3-2.7 2.1-4.9l51-128.7h85.7l-94.2 205.3q-3.3 7.2-8.6 11.2-5.2 3.9-11.8 5.8-6.5 1.9-13.6 2.6-7.2 0.6-13.9 0.6-6.7 0-13.9-0.6-7.2-0.7-13.7-2.6-6.5-1.9-12-5.8-5.4-4-8.4-11.2l-94.2-205.3h85.8z"/>
						</g>
						<path id="path116" fill-rule="evenodd" class="s1" d="m909 509.1h82.4v223h-82.4z"/>
						<g id="g118">
							<path id="path120" fill-rule="evenodd" class="s1" d="m1027.2 753.9h99.2q6.8 0 15.4-0.6 8.6-0.6 14.9-5.2 7.6-6.4 9.7-16h-71.1q-8.8 0-17.9-0.7-9-0.6-17.6-3.5-8.7-3-16.7-8.5-7.9-5.4-14.3-15.5-9.2-14.3-13.2-34.7-4-20.4-4-49.4 0-16.4 1.3-28.9 1.2-12.3 4-22.2 2.7-9.9 6.9-17.7 4.2-7.8 10.5-14.9 12.6-14.8 28.6-20.9 16-6.1 42.1-6.1h91.7q9.6 0 20.2 1.5 10.5 1.5 18.9 8.6 8.4 7.2 10.7 16.9 2.3 9.6 2.3 16.8v154.3q0 22.3-3.3 40-3.4 17.7-14.3 31.1-12.7 16-33.1 22.7-20.4 6.8-46 6.8h-124.9zm139.2-167.4q0-4.6-1.1-8-1-3.4-5.2-6.3-3.4-2.1-6.5-2.8-3.2-0.6-6.6-0.6h-9.2q-8.9 0-17.7 1.9-8.8 1.9-15.5 10.3-3 3.4-5.9 12.4-3 9.1-3 29.2 0 14.8 2.3 24 2.3 9.3 7 14.3 8 9.3 18.5 10.3 10.5 1.1 19.3 1.1h23.6z"/>
						</g>
						<g id="g122">
							<path id="path124" fill-rule="evenodd" class="s1" d="m1424.6 507.2q13.9 0.7 27 2.8 13 2.1 24.6 6.7 11.5 4.6 20.8 12.6 10.5 9.3 16.4 21.7 5.9 12.4 8.8 25 3 12.6 3.6 24.4 0.6 11.8 0.6 20.2 0 8.4-0.6 20.2-0.6 11.8-3.6 24.4-2.9 12.6-8.8 25-5.9 12.4-16.4 21.7-9.3 8-20.8 12.6-11.6 4.6-24.6 6.7-13.1 2.1-27 2.8-13.8 0.6-26.9 0.6-13.4 0-27.1-0.6-13.7-0.7-26.7-2.8-13-2.1-24.6-6.7-11.6-4.6-20.8-12.6-10.6-9.3-16.5-21.7-5.8-12.4-8.8-25-2.9-12.6-3.6-24.4-0.6-11.8-0.6-20.2 0-8.4 0.6-20.2 0.7-11.8 3.6-24.4 3-12.6 8.8-25 5.9-12.4 16.5-21.7 9.2-8 20.8-12.6 11.6-4.6 24.6-6.7 13-2.1 26.7-2.8 13.7-0.6 27.1-0.6 13.1 0 26.9 0.6zm-68.7 140.5q2.7 8.7 5.2 12 0.4 0.9 2.8 3.4 2.3 2.5 6.7 5 4.4 2.6 10.9 4.7 6.5 2.1 16.2 2.1 16.9 0 25-5.5 8.2-5.5 11.2-9.7 5-7.1 6.7-17 1.7-9.9 1.7-22.1 0-17.7-2.3-26.5-2.3-8.8-5.7-13.5-3.3-4.2-11.3-9.2-8-5.1-25.3-5.1-17.2 0-25.2 5.1-8 5-11.4 9.2-2.1 3.4-5 11.8-3 8.4-3 28.2 0 18.5 2.8 27.1z"/>
						</g>
						<g id="g126">
							<path id="path128" fill-rule="evenodd" class="s1" d="m685.9 441.1c-103.5-49.2-147.5-173-98.3-276.5 49.2-103.4 173-147.5 276.5-98.2 103.5 49.2 147.5 173 98.3 276.4-49.2 103.5-173 147.5-276.5 98.3zm73.8-54.7q12 3.3 24.3 3.5 12.4 0.2 25-2.6 12.6-2.8 25.5-8.5 8.8-3.9 16.8-9.6c5.4-3.8 10.4-8.1 15.1-12.8 4.7-4.7 9-9.9 12.8-15.3 3.9-5.5 7.2-11.3 10.1-17.3q1.8-3.8 3.3-7.6 1.5-3.9 2.7-7.9 1.2-3.9 2.1-7.9 0.9-4 1.5-8.1c2.8-17 2.5-33.5-0.2-49.1-2.8-15.6-7.9-30.4-14.6-43.7-6.7-13.3-14.9-25.2-23.8-35.1-8.9-10-18.5-18.1-28-23.7-9.3-5.9-18-10.3-25.8-13.5-7.8-3.2-14.8-5.3-20.7-6.6-5.9-1.4-10.8-2-14.4-2.2-3.6-0.2-5.9-0.1-6.8 0 1.2 0.5 3.7 1.6 7 3.2 3.3 1.7 7.4 4.1 12.1 7.3 4.8 3.2 10 7.3 15.5 12.3 5.4 5.1 11.1 11.2 16.7 18.5 5.8 7.2 11.1 15.4 15.5 24.3 4.5 8.8 8 18.4 10.2 28.3 2.2 10 3 20.4 2.1 30.8-0.9 10.5-3.6 21-8.6 31.4l-0.6 1.3q-0.3 0.5-0.6 1.2-0.3 0.6-0.7 1.2-0.3 0.6-0.6 1.3-3.3 5.9-7.2 10.7c-2.6 3.2-5.5 6-8.5 8.4q-4.5 3.7-9.4 6.2-4.9 2.5-10.2 3.9 2-2.2 3.9-4.5 1.8-2.4 3.4-4.9 1.7-2.4 3.2-5.1c0.9-1.7 1.9-3.5 2.7-5.3q0.4-0.8 0.7-1.5 0.4-0.7 0.7-1.5 0.3-0.7 0.6-1.5c0.2-0.5 0.4-0.9 0.6-1.5 2.2-5.9 3.8-12.1 4.5-18.5 0.8-6.5 0.9-13.1 0.2-19.6-0.7-6.5-2.2-13-4.5-19.2-2.2-6.1-5.3-12-9.2-17.4-7.5-10.5-16.4-18.7-25.9-24.9-9.4-6.1-19.6-10.4-29.7-12.9-10.2-2.6-20.2-3.5-29.6-3.1-9.4 0.4-18 2-25.3 4.7-7 2.5-12.8 5.3-17.7 8.1-4.8 2.9-8.8 5.8-11.9 8.4-3.2 2.7-5.6 5.2-7.3 7.2-1.8 1.9-3 3.5-3.7 4.3 1.3-0.5 3.1-1.5 5.5-2.6 2.4-1 5.3-2.3 8.9-3.5 3.5-1.1 7.7-2.1 12.6-2.8 4.9-0.7 10.5-0.9 16.9-0.6 6.4 0 13.2 1.2 19.9 3.4 6.6 2.2 13.2 5.4 19.1 9.4 5.9 4 11.3 8.6 15.6 13.8 4.4 5.2 7.7 10.9 9.6 16.8q1.2 3.6 1.7 7 0.5 3.5 0.2 6.7-0.3 3.2-1.1 6.1c-0.5 2-1.3 3.9-2.1 5.6-1 2.2-2.2 4.2-3.5 5.9-1.3 1.9-2.7 3.5-4.1 4.9-1.4 1.4-2.8 2.7-4.1 3.7-1.4 1-2.7 1.8-3.8 2.4-2.6 1.2-5.1 2.3-7.6 3.3-2.5 1-5.1 2-7.5 3.1-2.5 1-4.9 2.2-7.3 3.5-2.4 1.4-4.7 3-6.9 4.9-1.2 1.1-2.3 2.1-3.3 3.1-0.9 0.9-1.8 1.8-2.6 2.8q-1.2 1.3-2.1 2.8-0.9 1.4-1.7 2.9c-0.3 0.6-0.5 1.3-0.8 1.9-0.3 0.7-0.5 1.4-0.7 2.1q-0.4 1-0.7 2.2-0.3 1.2-0.6 2.5c-1.1 4.3-1.3 9.3-0.7 14.8 0.6 5.6 2.2 11.5 4.8 17.5 2.6 5.9 6.3 11.9 11.2 17.6 4.9 5.7 11 11 18.4 15.5 7.7 4.3 15.5 7.6 23.5 9.7z"/>
						</g>
						<g id="g130">
							<path id="path132" fill-rule="evenodd" class="s2" d="m1526.4 459.4c0 18.7-15.1 33.9-33.9 33.9-18.7 0-33.8-15.2-33.8-33.9 0-18.7 15.1-33.9 33.8-33.9 18.8 0 33.9 15.2 33.9 33.9zm-3.1 0c0-17-13.7-30.8-30.8-30.8-17 0-30.8 13.8-30.8 30.8 0 17 13.8 30.8 30.8 30.8 17.1 0 30.8-13.8 30.8-30.8zm-17.7 13.6q0 1.9 0.4 3.3 0.5 1.5 1.5 2.4v0.7h-3.3q-1-1-1.5-2.8-0.4-1.7-0.4-3.6v-3.6q0-3.6-2.3-5.7-2.3-2.1-6.5-2.1h-11.1v17.8h-3.2v-39.4h13.3q6.4 0 9.8 2.8 3.3 2.7 3.3 8.1 0 3.1-1.8 5.6-1.8 2.5-5.1 3.6 3.7 0.9 5.3 3.3 1.6 2.4 1.6 5.9zm-5.7-16.4q2.5-2.1 2.5-5.8 0-3.9-2.5-6-2.4-2.1-7.4-2.1h-10.1v16.1h9.7q5.4 0 7.8-2.2z"/>
						</g>
					</g>
				</g>
			</g>
		</g>
	</g>
</svg>