<svg version="1.2" xmlns="http://www.w3.org/2000/svg" viewBox="0 0 176 99" width="176" height="99">
	<title>verteil-svg</title>
	<style>
		.s0 { fill: #00be43 } 
	</style>
	<g id="Design">
		<g id="Design-V.2.0">
			<g id="header">
				<g id="nav_logo">
					<g id="verteil_logo_white">
						<path id="Verteil" fill-rule="evenodd" class="s0" d="m53.1 61h-4.7l-9.4-25h6.7l5.5 16.2 5.9-16.2h6.5zm13.2 0v-25h16.6v4.8h-10.8v5h10.8v4.7h-10.8v5.7h10.8v4.8zm20.9-25h8.2c4.2 0 9.5 2.1 9.5 7.6 0 3.8-2.5 5.9-5.2 7 2.2 3 5.9 8.1 7.6 10.4h-7.3l-6.8-9.8-0.2 0.1v9.7h-5.8zm5.8 10.5h1.5c2.4 0 4.1-0.8 4.1-2.7 0-1.8-1.4-3-3.4-3h-2.2zm26.6-5.6v20.2h-5.8v-20.2h-5.9v-4.8h17.5v4.8zm8.6 20.2v-25h16.5v4.7h-10.7v5h10.7v4.8h-10.7v5.7h10.7v4.8zm21 0v-25h5.8v25zm11 0v-25h5.8v20.2h10.1v4.8z"/>
						<path id="verteil_logo" fill-rule="evenodd" class="s0" d="m30 47.9l-22 13.8-5.3 3.3-1.6 1q0.1-0.2 0.2-0.5c1.6-3 3.6-12 3-19.6q0-1.1-0.2-2.1-0.1-1-0.3-2-0.2-1-0.5-2-0.2-1-0.5-1.9-0.3-0.9-0.6-1.8-0.3-0.9-0.6-1.7-0.4-0.9-0.8-1.7-0.4-0.9-0.8-1.7h0.1l11.8 6.7q0.4 1.1 0.6 2.3 0.3 1.2 0.4 2.3 0.2 1.2 0.2 2.4 0.1 1.2 0 2.4c-0.7 5.7-4 9.8-6.9 13.5-0.9 1.2-2 2.9-2.9 4l5.3-3.3q0.8-1 1.6-2 0.7-0.9 1.5-1.9 0.7-1 1.4-2.1 0.7-1 1.3-2c4.7-7.3 4.5-10.2 4-11.9l11.3 6.4z"/>
					</g>
				</g>
			</g>
		</g>
	</g>
</svg>